<?xml version="1.0" encoding="utf-8"?>
<!-- Generator: Adobe Illustrator 22.0.1, SVG Export Plug-In . SVG Version: 6.00 Build 0)  -->
<svg version="1.1" id="Layer_1" xmlns="http://www.w3.org/2000/svg" xmlns:xlink="http://www.w3.org/1999/xlink" x="0px" y="0px"
	 viewBox="0 0 256 256" style="enable-background:new 0 0 256 256;" xml:space="preserve">
<style type="text/css">
	.st0{fill:#3A312A;}
	.st1{fill:#D6DF58;}
	.st2{fill:#87796F;}
	.st3{fill:#B9C239;}
	.st4{fill:#EF6D7A;}
	.st5{fill:#FCE8CB;}
	.st6{fill:#D5DE58;}
	.st7{fill:#D34E5C;}
	.st8{fill:#695B51;}
	.st9{fill:#8AC6DD;}
	.st10{fill:#D7E057;}
	.st11{fill:#B8C136;}
	.st12{fill:#F16C7A;}
	.st13{fill:#8AC2D9;}
	.st14{fill:#F7E3C7;}
	.st15{fill:#8AC3DA;}
	.st16{fill:#6DA3BC;}
	.st17{fill:#6A5C52;}
	.st18{fill:#D5DC57;}
	.st19{fill:#F6E2C6;}
	.st20{fill:#DBC7AA;}
	.st21{fill:#CE4E61;}
	.st22{fill:#FAE6CA;}
	.st23{fill:#8AC5DC;}
	.st24{fill:#DDC9AC;}
	.st25{fill:#DECAAD;}
	.st26{fill:#6CA6BE;}
	.st27{fill:#F8E4C8;}
	.st28{fill:#89C4DB;}
	.st29{fill:#ED6E7A;}
	.st30{fill:#D24E5C;}
	.st31{fill:#6DA4BD;}
	.st32{fill:#EB6E7A;}
	.st33{fill:#68A7BB;}
	.st34{fill:#B9BC37;}
	.st35{fill:#CC4E61;}
	.st36{fill:#6CA8BF;}
	.st37{fill-rule:evenodd;clip-rule:evenodd;fill:#D5DE58;}
	.st38{fill:#EA6D7A;}
	.st39{fill:#F4E0C4;}
	.st40{fill-rule:evenodd;clip-rule:evenodd;fill:#D6DF58;}
	.st41{fill-rule:evenodd;clip-rule:evenodd;fill:#F16C7A;}
	.st42{fill:#F3DEC3;}
	.st43{fill-rule:evenodd;clip-rule:evenodd;fill:#FAE6CA;}
	.st44{fill:#F59689;}
	.st45{fill-rule:evenodd;clip-rule:evenodd;fill:#F8E4C8;}
	.st46{fill-rule:evenodd;clip-rule:evenodd;fill:#FCE8CB;}
	.st47{fill:#F5978A;}
	.st48{fill:#D4DB56;}
	.st49{fill-rule:evenodd;clip-rule:evenodd;fill:#D4DA55;}
	.st50{fill-rule:evenodd;clip-rule:evenodd;fill:#EB6E7A;}
	.st51{fill:#68A6B9;}
	.st52{fill-rule:evenodd;clip-rule:evenodd;fill:#D5DC57;}
	.st53{fill:#8AC1D8;}
	.st54{fill:#F5E1C5;}
	.st55{fill:#D4D752;}
	.st56{fill:#D3D751;}
	.st57{fill:#D4D853;}
	.st58{fill:#E96C7A;}
	.st59{fill:#D4DA55;}
	.st60{fill:#8BC0D7;}
	.st61{fill:#87796F;stroke:#3A312A;stroke-width:3;stroke-linecap:round;stroke-linejoin:round;stroke-miterlimit:10;}
</style>
<g>
	<g>
		<g>
			<path class="st4" d="M107.42,76.556H90.25c-2.9,0-5.25,2.35-5.25,5.25v17.09h27.67v-17.09
				C112.67,78.906,110.32,76.556,107.42,76.556z"/>
		</g>
	</g>
	<g>
		<g>
			<path class="st0" d="M107.42,75.056H90.25c-3.722,0-6.75,3.028-6.75,6.75v17.09c0,0.829,0.671,1.5,1.5,1.5h27.67
				c0.829,0,1.5-0.671,1.5-1.5v-17.09C114.17,78.083,111.142,75.056,107.42,75.056z M111.17,97.396H86.5v-15.59
				c0-2.068,1.682-3.75,3.75-3.75h17.17c2.068,0,3.75,1.682,3.75,3.75V97.396z"/>
		</g>
	</g>
	<g>
		<g>
			<path class="st4" d="M165.75,76.556h-17.17c-2.9,0-5.25,2.35-5.25,5.25v17.09H171v-17.09C171,78.906,168.65,76.556,165.75,76.556
				z"/>
		</g>
	</g>
	<g>
		<g>
			<path class="st0" d="M165.75,75.056h-17.17c-3.722,0-6.75,3.028-6.75,6.75v17.09c0,0.829,0.671,1.5,1.5,1.5H171
				c0.829,0,1.5-0.671,1.5-1.5v-17.09C172.5,78.083,169.472,75.056,165.75,75.056z M169.5,97.396h-24.67v-15.59
				c0-2.068,1.682-3.75,3.75-3.75h17.17c2.068,0,3.75,1.682,3.75,3.75V97.396z"/>
		</g>
	</g>
	<g>
		<g>
			<path class="st23" d="M181.075,16.444H74.925C42.381,16.444,16,42.826,16,75.369v0c0,10.846,8.792,19.638,19.638,19.638h16.191
				c10.846,0,19.638-8.793,19.638-19.638c0-10.846,8.792-19.638,19.638-19.638h73.789c10.846,0,19.638,8.792,19.638,19.638
				c0,10.846,8.792,19.638,19.638,19.638h16.191c10.846,0,19.638-8.793,19.638-19.638v0C240,42.826,213.619,16.444,181.075,16.444z"
				/>
		</g>
	</g>
	<g>
		<g>
			<path class="st0" d="M181.075,14.944H74.925c-33.318,0-60.425,27.107-60.425,60.425c0,11.656,9.482,21.138,21.138,21.138h16.191
				c11.656,0,21.138-9.482,21.138-21.138c0-10.001,8.137-18.138,18.138-18.138h29.506c0.829,0,1.5-0.671,1.5-1.5
				c0-0.829-0.671-1.5-1.5-1.5H91.105c-11.656,0-21.138,9.482-21.138,21.138c0,10.001-8.137,18.138-18.138,18.138H35.638
				c-10.001,0-18.138-8.137-18.138-18.138c0-31.664,25.761-57.425,57.425-57.425h106.15c31.664,0,57.425,25.761,57.425,57.425
				c0,10.001-8.137,18.138-18.138,18.138h-16.191c-10.002,0-18.138-8.137-18.138-18.138c0-11.656-9.482-21.138-21.138-21.138
				h-29.506c-0.829,0-1.5,0.671-1.5,1.5c0,0.829,0.671,1.5,1.5,1.5h29.506c10.002,0,18.138,8.137,18.138,18.138
				c0,11.656,9.482,21.138,21.138,21.138h16.191c11.656,0,21.138-9.482,21.138-21.138C241.5,42.051,214.394,14.944,181.075,14.944z"
				/>
		</g>
	</g>
	<g>
		<g>
			<path class="st1" d="M16.312,69.426C16.113,71.381,16,73.361,16,75.369v0c0,10.846,8.792,19.638,19.638,19.638h16.191
				c10.846,0,19.638-8.792,19.638-19.638c0-2.074,0.327-4.069,0.926-5.943H16.312z"/>
		</g>
	</g>
	<g>
		<g>
			<path class="st0" d="M73.604,68.541c-0.283-0.387-0.732-0.615-1.211-0.615H16.312c-0.77,0-1.415,0.583-1.492,1.348
				c-0.212,2.083-0.319,4.134-0.319,6.095c0,11.656,9.482,21.138,21.138,21.138h16.191c11.656,0,21.138-9.482,21.138-21.138
				c0-1.865,0.288-3.711,0.854-5.487C73.967,69.426,73.886,68.928,73.604,68.541z M69.967,75.369
				c0,10.001-8.137,18.138-18.138,18.138H35.638c-10.001,0-18.138-8.137-18.138-18.138c0-1.437,0.061-2.926,0.182-4.443h52.76
				C70.126,72.383,69.967,73.871,69.967,75.369z"/>
		</g>
	</g>
	<g>
		<g>
			<path class="st1" d="M239.688,69.426h-56.081c0.598,1.874,0.926,3.87,0.926,5.943c0,10.846,8.792,19.638,19.638,19.638h16.191
				c10.846,0,19.638-8.792,19.638-19.638v0C240,73.361,239.887,71.381,239.688,69.426z"/>
		</g>
	</g>
	<g>
		<g>
			<path class="st0" d="M241.18,69.274c-0.078-0.766-0.723-1.348-1.492-1.348h-56.081c-0.478,0-0.929,0.229-1.211,0.615
				c-0.283,0.386-0.364,0.884-0.218,1.34c0.567,1.778,0.855,3.624,0.855,5.488c0,11.656,9.482,21.138,21.138,21.138h16.191
				c11.656,0,21.138-9.482,21.138-21.138C241.5,73.406,241.393,71.355,241.18,69.274z M220.362,93.507h-16.191
				c-10.002,0-18.138-8.137-18.138-18.138c0-1.498-0.159-2.985-0.474-4.443h52.76c0.121,1.516,0.182,3.005,0.182,4.443
				C238.5,85.371,230.363,93.507,220.362,93.507z"/>
		</g>
	</g>
	<g>
		<g>
			<path class="st23" d="M226.02,188.156l-42.57-83.17c-1.91-3.74-5.76-6.09-9.97-6.09H82.13c-4.22,0-8.08,2.37-9.99,6.13
				l-19.162,37.769l-6.951,13.7l-16.067,31.67c-0.79,1.57-1.21,3.31-1.21,5.07v0.12c0,6.19,5.02,11.2,11.2,11.2h176.1
				c6.18,0,11.2-5.01,11.2-11.2v-0.1C227.25,191.486,226.83,189.736,226.02,188.156z"/>
		</g>
	</g>
	<g>
		<g>
			<path class="st0" d="M227.355,187.472l-42.569-83.168c-2.176-4.261-6.508-6.908-11.306-6.908H82.13
				c-4.81,0-9.15,2.664-11.328,6.952l-19.162,37.769c-0.374,0.739-0.08,1.642,0.659,2.017c0.739,0.374,1.642,0.08,2.017-0.659
				l19.161-37.768c1.663-3.275,4.979-5.31,8.652-5.31h91.35c3.665,0,6.974,2.02,8.635,5.274l42.57,83.17
				c0.697,1.359,1.065,2.886,1.065,4.416v0.1c0,5.349-4.352,9.7-9.7,9.7H39.95c-5.349,0-9.7-4.351-9.7-9.7v-0.12
				c0-1.511,0.363-3.031,1.048-4.392l16.067-31.67c0.375-0.739,0.08-1.642-0.659-2.017c-0.738-0.375-1.642-0.079-2.017,0.659
				L28.62,187.491c-0.897,1.782-1.37,3.768-1.37,5.745v0.12c0,7.002,5.697,12.7,12.7,12.7h176.1c7.003,0,12.7-5.697,12.7-12.7v-0.1
				C228.75,191.252,228.268,189.252,227.355,187.472z"/>
		</g>
	</g>
	<g>
		<g>
			<path class="st1" d="M216.05,204.56H39.95c-0.11,0-0.22,0-0.32-0.01c-6.03-0.16-10.88-5.11-10.88-11.19v35
				c0,6.19,5.02,11.2,11.2,11.2h176.1c6.18,0,11.2-5.01,11.2-11.2v-35C227.25,199.55,222.23,204.56,216.05,204.56z"/>
		</g>
	</g>
	<g>
		<g>
			<path class="st0" d="M227.25,191.86c-0.829,0-1.5,0.671-1.5,1.5c0,5.349-4.352,9.7-9.7,9.7H39.95
				c-0.058,0-0.116,0.002-0.167-0.003c-0.038-0.004-0.075-0.006-0.113-0.007c-5.194-0.138-9.419-4.485-9.419-9.69
				c0-0.829-0.671-1.5-1.5-1.5s-1.5,0.671-1.5,1.5v35c0,7.003,5.697,12.7,12.7,12.7h176.1c7.003,0,12.7-5.697,12.7-12.7v-35
				C228.75,192.531,228.079,191.86,227.25,191.86z M225.75,228.36c0,5.349-4.352,9.7-9.7,9.7H39.95c-5.349,0-9.7-4.352-9.7-9.7
				v-26.85c2.255,2.676,5.584,4.426,9.294,4.538c0.129,0.01,0.267,0.012,0.407,0.012h176.1c3.885,0,7.369-1.754,9.7-4.511V228.36z"
				/>
		</g>
	</g>
	<g>
		<g>
			<path class="st33" d="M181.08,17.946h-14.5c29.14,0,53.26,21.82,56.92,49.98H238C234.34,39.766,210.22,17.946,181.08,17.946z"/>
		</g>
	</g>
	<g>
		<g>
			<path class="st34" d="M238.32,70.926h-14.5c0.12,1.52,0.18,2.99,0.18,4.44c0,5-2.04,9.54-5.32,12.82
				c-3.28,3.28-7.82,5.32-12.82,5.32h14.5c5,0,9.54-2.04,12.82-5.32c3.28-3.28,5.32-7.82,5.32-12.82
				C238.5,73.916,238.44,72.446,238.32,70.926z"/>
		</g>
	</g>
	<g>
		<g>
			<path class="st34" d="M216.05,206.056h-5.8v22.3c0,4.15-2.25,7.77-5.6,9.7h11.4c5.35,0,9.7-4.35,9.7-9.7v-26.81
				C223.42,204.306,219.94,206.056,216.05,206.056z"/>
		</g>
	</g>
	<g>
		<g>
			<path class="st35" d="M165.75,78.056H155.5c2.07,0,3.75,1.68,3.75,3.75v15.59h10.25v-15.59
				C169.5,79.736,167.82,78.056,165.75,78.056z"/>
		</g>
	</g>
	<g>
		<g>
			<path class="st33" d="M224.68,188.836l-42.56-83.17c-1.67-3.25-4.97-5.27-8.64-5.27h-11.4c1.84,1.05,3.37,2.63,4.37,4.59
				l42.57,83.17c0.81,1.58,1.23,3.33,1.23,5.1v9.8h5.8c5.35,0,9.7-4.35,9.7-9.7C225.75,191.726,225.38,190.196,224.68,188.836z"/>
		</g>
	</g>
	<g>
		<g>
			<circle class="st22" cx="128" cy="151.726" r="34.5"/>
		</g>
	</g>
	<g>
		<g>
			<path class="st0" d="M128,115.726c-19.851,0-36,16.149-36,36s16.149,36,36,36s36-16.149,36-36S147.851,115.726,128,115.726z
				 M128,184.726c-18.196,0-33-14.804-33-33s14.804-33,33-33s33,14.804,33,33S146.196,184.726,128,184.726z"/>
		</g>
	</g>
</g>
</svg>
